<?xml version="1.0" standalone="no"?>
<!DOCTYPE svg PUBLIC "-//W3C//DTD SVG 20010904//EN"
 "http://www.w3.org/TR/2001/REC-SVG-20010904/DTD/svg10.dtd">
<svg version="1.0" xmlns="http://www.w3.org/2000/svg"
 width="166.000000pt" height="166.000000pt" viewBox="0 0 166.000000 166.000000"
 preserveAspectRatio="xMidYMid meet">
<metadata>
Created by potrace 1.14, written by Peter Selinger 2001-2017
</metadata>
<g transform="translate(0.000000,166.000000) scale(0.100000,-0.100000)"
fill="#000000" stroke="none">
<path d="M241 1026 c-8 -9 -35 -26 -61 -37 -42 -18 -55 -31 -77 -81 -2 -3 4
-13 13 -22 14 -15 13 -17 -11 -26 -31 -12 -42 -35 -25 -55 19 -23 90 -18 143
9 26 13 47 20 47 16 0 -4 -10 -12 -22 -18 -20 -9 -16 -11 27 -11 28 0 57 3 65
9 9 6 20 5 29 -3 12 -9 13 -9 8 0 -5 7 -1 23 8 36 14 21 14 26 1 36 -12 10
-22 8 -50 -14 -20 -15 -41 -25 -48 -23 -7 3 1 12 19 22 53 27 80 86 40 86 -7
0 -33 -11 -60 -25 -26 -14 -47 -21 -47 -16 0 11 40 37 52 33 4 -1 10 8 13 19
7 22 -10 49 -30 49 -8 0 -15 7 -17 17 -3 15 -4 15 -17 -1z m-21 -125 c0 -8
-54 -32 -69 -31 -4 1 46 30 67 39 1 1 2 -3 2 -8z"/>
<path d="M434 999 c-6 -10 -4 -11 29 -13 21 -1 22 -5 22 -75 0 -51 4 -76 13
-78 9 -4 12 16 12 75 0 75 1 79 22 78 11 0 23 4 25 10 4 13 -115 15 -123 3z"/>
<path d="M622 999 c-44 -17 -54 -108 -16 -150 23 -25 78 -25 104 1 20 20 23
31 22 84 -1 52 -58 86 -110 65z m67 -26 c38 -31 28 -108 -16 -119 -33 -9 -55
5 -65 41 -10 39 -1 71 25 83 30 15 32 14 56 -5z"/>
<path d="M770 918 c0 -52 4 -88 10 -88 6 0 10 16 10 35 0 29 4 35 20 35 13 0
28 -13 41 -35 12 -19 25 -35 30 -35 12 0 11 6 -5 38 -12 24 -12 30 0 47 19 25
18 59 -2 76 -8 7 -35 13 -60 14 l-44 2 0 -89z m92 50 c16 -26 3 -43 -35 -46
-35 -3 -37 -2 -37 26 0 16 3 32 7 35 10 10 55 -1 65 -15z"/>
<path d="M962 1000 c-49 -21 -59 -123 -14 -157 17 -14 70 -17 88 -5 36 23 45
106 17 140 -22 26 -60 35 -91 22z m76 -37 c17 -23 15 -64 -4 -91 -31 -45 -94
-15 -94 45 0 61 64 92 98 46z"/>
<path d="M1109 982 c-4 -97 -1 -146 9 -150 8 -2 12 17 12 64 l0 68 47 -67 c26
-37 52 -67 58 -67 7 0 11 29 10 88 0 53 -4 86 -10 84 -5 -1 -10 -29 -10 -62 0
-33 -2 -60 -5 -60 -7 1 -69 86 -76 104 -11 28 -34 27 -35 -2z"/>
<path d="M1284 999 c-5 -9 9 -13 34 -10 9 1 12 -20 12 -79 0 -61 3 -81 13 -77
8 2 12 26 11 75 0 44 4 73 10 74 6 0 17 2 25 2 8 1 16 6 18 11 4 13 -115 16
-123 4z"/>
<path d="M1473 1000 c-46 -19 -60 -108 -23 -148 21 -22 73 -30 96 -14 36 23
45 106 17 140 -21 25 -60 35 -90 22z m67 -30 c39 -39 16 -120 -33 -120 -65 0
-79 111 -17 133 25 9 29 8 50 -13z"/>
<path d="M468 780 c-71 -55 -14 -190 67 -160 28 10 48 37 40 50 -5 8 -12 4
-22 -9 -19 -28 -68 -28 -83 0 -6 11 -12 34 -12 51 -2 59 65 85 99 39 14 -20
26 -10 17 13 -7 17 -43 36 -68 36 -7 0 -25 -9 -38 -20z"/>
<path d="M619 793 c-6 -48 -3 -123 4 -140 17 -39 75 -47 110 -16 13 13 17 32
17 90 0 42 -4 73 -10 73 -6 0 -10 -29 -10 -68 0 -72 -10 -92 -45 -92 -39 0
-47 14 -47 84 0 36 -5 69 -9 72 -5 3 -9 2 -10 -3z"/>
<path d="M796 781 c-2 -9 -4 -49 -4 -88 0 -53 3 -73 13 -73 8 0 12 11 10 30
-2 26 1 30 24 30 40 0 71 26 71 59 0 37 -18 51 -69 55 -31 2 -42 -1 -45 -13z
m68 -11 c45 -17 31 -60 -21 -68 -23 -3 -25 1 -25 38 0 45 2 47 46 30z"/>
<path d="M966 775 c-55 -51 -21 -155 50 -155 35 0 90 40 66 48 -7 2 -19 -4
-28 -12 -36 -37 -94 -4 -94 54 0 55 55 85 90 50 28 -28 47 -21 23 9 -27 33
-74 36 -107 6z"/>
<path d="M1159 767 c-28 -76 -48 -133 -49 -139 0 -18 18 -6 28 17 9 20 19 25
46 25 28 0 35 -4 40 -25 6 -22 26 -36 26 -18 0 22 -56 163 -66 167 -7 3 -18
-9 -25 -27z m40 -47 c10 -29 9 -30 -19 -30 -27 0 -28 1 -17 30 6 17 14 30 18
30 4 0 12 -13 18 -30z"/>
<path d="M1286 793 c-3 -3 -6 -44 -6 -90 0 -63 3 -83 14 -83 8 0 12 8 9 23 -2
12 2 30 9 40 13 18 16 16 42 -22 16 -23 35 -41 43 -41 10 0 3 16 -21 48 l-35
48 35 39 c37 42 39 45 24 45 -6 0 -30 -21 -54 -46 l-43 -47 1 42 c2 42 -5 57
-18 44z"/>
<path d="M1444 788 c-5 -9 -7 -49 -5 -130 l1 -38 49 0 c28 0 53 5 56 10 4 6
-12 10 -39 10 -44 0 -46 1 -46 29 0 26 4 30 28 29 43 -1 52 1 52 13 0 6 -12
10 -27 9 -48 -3 -53 -1 -53 28 0 26 3 28 38 28 20 -1 38 3 40 8 3 13 -87 16
-94 4z"/>
<path d="M60 751 c5 -14 17 -51 28 -81 l19 -55 110 -3 c85 -2 113 1 122 11 6
8 22 46 35 84 l24 70 -173 0 -173 0 8 -26z"/>
</g>
</svg>
